<svg width="54" height="60" viewBox="0 0 54 60" fill="none" xmlns="http://www.w3.org/2000/svg">
    <path fill-rule="evenodd" clip-rule="evenodd" d="M53.6667 8.66669C53.6667 13.085 50.085 16.6667 45.6667 16.6667C42.1835 16.6667 39.2202 14.4405 38.1219 11.3334H13.6667C9.24843 11.3334 5.66671 14.9151 5.66671 19.3334V20.0247C5.66671 24.443 9.24843 28.0247 13.6667 28.0247H40.6791C47.8519 28.0247 53.6667 33.8395 53.6667 41.0124C53.6667 48.1852 47.8519 54 40.6791 54H36.1047L36.8857 54.7811C37.9271 55.8225 37.9271 57.5109 36.8857 58.5523C35.8443 59.5937 34.1559 59.5937 33.1145 58.5523L25.8955 51.3334L33.1145 44.1144C34.1559 43.073 35.8443 43.073 36.8857 44.1144C37.9271 45.1558 37.9271 46.8442 36.8857 47.8856L36.1047 48.6667H40.6791C44.9064 48.6667 48.3334 45.2397 48.3334 41.0124C48.3334 36.785 44.9064 33.358 40.6791 33.358H13.6667C6.30291 33.358 0.333374 27.3885 0.333374 20.0247V19.3334C0.333374 11.9696 6.30291 6.00002 13.6667 6.00002H38.1219C39.2202 2.89284 42.1835 0.666687 45.6667 0.666687C50.085 0.666687 53.6667 4.24841 53.6667 8.66669ZM8.33337 59.3334C12.7517 59.3334 16.3334 55.7516 16.3334 51.3334C16.3334 46.9151 12.7517 43.3334 8.33337 43.3334C3.9151 43.3334 0.333374 46.9151 0.333374 51.3334C0.333374 55.7516 3.9151 59.3334 8.33337 59.3334Z" fill="#7C7E92" fill-opacity="0.56"/>
</svg>
