<svg width="32" height="32">
  <path fill-rule="evenodd" clip-rule="evenodd" d="M1 28a1 1 0 011-1h28a1 1 0 110 2H2a1 1 0 01-1-1zM15.606 3.08a1 1 0 01.788 0l14 6A1 1 0 0131 10v3.188a1 1 0 01-1 1H2a1 1 0 01-1-1V10a1 1 0 01.606-.92l14-6zM3 10.66v1.527h26V10.66L16 5.088 3 10.659z" fill="#fff"/>
  <path fill-rule="evenodd" clip-rule="evenodd" d="M15.606 7.08a1 1 0 01.788 0l3.5 1.5a1 1 0 11-.788 1.84L16 9.087l-3.106 1.331a1 1 0 11-.788-1.838l3.5-1.5zm2.139 8.111a.99.99 0 011.036.954l.436 11.807a1.01 1.01 0 01-.962 1.044.99.99 0 01-1.036-.954l-.436-11.807a1.01 1.01 0 01.962-1.044zm-3.49 0a.99.99 0 00-1.036.954l-.436 11.807c-.02.552.41 1.02.962 1.044a.99.99 0 001.036-.954l.436-11.807a1.01 1.01 0 00-.962-1.044z" fill="#fff"/>
  <path fill-rule="evenodd" clip-rule="evenodd" d="M12 12.188h8v3.6a1.4 1.4 0 01-1.4 1.4h-5.2a1.4 1.4 0 01-1.4-1.4v-3.6zm2 2v1h4v-1h-4zm-5.255 1.003a.99.99 0 011.036.954l.436 11.807a1.01 1.01 0 01-.962 1.044.99.99 0 01-1.036-.954l-.436-11.807a1.01 1.01 0 01.962-1.044zm-3.49 0a.99.99 0 00-1.036.954l-.436 11.807c-.02.552.41 1.02.962 1.044a.99.99 0 001.036-.954l.436-11.807a1.01 1.01 0 00-.962-1.044z" fill="#fff"/>
  <path fill-rule="evenodd" clip-rule="evenodd" d="M3 12.188h8v3.6a1.4 1.4 0 01-1.4 1.4H4.4a1.4 1.4 0 01-1.4-1.4v-3.6zm2 2v1h4v-1H5zm21.745 1.003a.99.99 0 011.036.954l.436 11.807a1.01 1.01 0 01-.962 1.044.99.99 0 01-1.036-.954l-.436-11.807a1.01 1.01 0 01.962-1.044zm-3.49 0a.99.99 0 00-1.036.954l-.436 11.807c-.02.552.41 1.02.962 1.044a.99.99 0 001.036-.954l.436-11.807a1.01 1.01 0 00-.962-1.044z" fill="#fff"/>
  <path fill-rule="evenodd" clip-rule="evenodd" d="M21 12.188h8v3.6a1.4 1.4 0 01-1.4 1.4h-5.2a1.4 1.4 0 01-1.4-1.4v-3.6zm2 2v1h4v-1h-4z" fill="#fff"/>
</svg>
