<svg width="32" height="32">
  <path fill-rule="evenodd" clip-rule="evenodd" d="M11.643 6.623a7.03 7.03 0 0113.33 4.458 7.534 7.534 0 01-8.29 12.145 8.687 8.687 0 11-5.04-16.602zM18.249 4a5.031 5.031 0 00-4.862 3.74 1 1 0 01-.804.732 6.688 6.688 0 103.724 12.752 1 1 0 01.816.014 5.534 5.534 0 006.027-9.146 1 1 0 01-.257-1.13A5.029 5.029 0 0018.249 4z" fill="#fff"/>
  <path d="M11 30a1 1 0 110-2h4V16.788a.96.96 0 01-.023-.022l-2.34-2.34a1 1 0 011.414-1.414l.949.948v-2.648a1 1 0 112 0v5.649l.95-.95a1 1 0 011.413 1.415l-2.34 2.34a.976.976 0 01-.023.022V28h4a1 1 0 110 2H11z" fill="#fff"/>
</svg>
