<svg width="32" height="32">
  <path fill-rule="evenodd" clip-rule="evenodd" d="M3 28a1 1 0 011-1h24a1 1 0 110 2H4a1 1 0 01-1-1zm13-17.209c-5.523 0-10 4.477-10 10 0 .76.085 1.5.245 2.209h19.51c.16-.71.245-1.449.245-2.209 0-5.523-4.477-10-10-10zm-12 10c0-6.627 5.373-12 12-12s12 5.373 12 12a12 12 0 01-.519 3.5l-.216.709H4.735l-.216-.709a12 12 0 01-.519-3.5z" fill="#fff"/>
  <path fill-rule="evenodd" clip-rule="evenodd" d="M15 13.791a1 1 0 011-1 7.998 7.998 0 017.021 4.163 1 1 0 01-1.754.96A5.998 5.998 0 0016 14.792a1 1 0 01-1-1zM2 20.625a1 1 0 011-1h2a1 1 0 110 2H3a1 1 0 01-1-1zm24 0a1 1 0 011-1h2a1 1 0 110 2h-2a1 1 0 01-1-1zM16 6a1 1 0 01-1-1V2a1 1 0 112 0v3a1 1 0 01-1 1zm-4 0a1 1 0 01-1-1V4a1 1 0 112 0v1a1 1 0 01-1 1zm8 0a1 1 0 01-1-1V4a1 1 0 112 0v1a1 1 0 01-1 1z" fill="#fff"/>
</svg>
