<svg width="24" height="24" viewBox="0 0 24 24" fill="none" xmlns="http://www.w3.org/2000/svg">
<path d="M10.98 1.99976C10.5327 1.99976 10.1157 2.20984 9.87141 2.5582L8.60869 4.35873L6.55244 5.49234L4.24432 5.60903C3.79772 5.63162 3.39361 5.86239 3.16997 6.22261L2.17741 7.82132C1.95378 8.18155 1.94091 8.6224 2.14318 8.99335L3.18859 10.9106V13.0889L2.14318 15.0062C1.94091 15.3771 1.95378 15.818 2.17741 16.1782L3.16997 17.7769C3.39361 18.1371 3.79772 18.3679 4.24432 18.3905L6.55244 18.5072L8.66381 19.6408L9.92653 21.4413C10.1708 21.7897 10.5878 21.9998 11.0351 21.9998H13.0202C13.4675 21.9998 13.8845 21.7897 14.1288 21.4413L15.3915 19.6408L17.4477 18.5072L19.7559 18.3905C20.2025 18.3679 20.6066 18.1372 20.8302 17.7769L21.8228 16.1782C22.0464 15.818 22.0593 15.3772 21.857 15.0062L20.8116 13.089V10.9106L21.857 8.99335C22.0593 8.6224 22.0464 8.18155 21.8228 7.82132L20.8302 6.22261C20.6066 5.86239 20.2025 5.63162 19.7559 5.60903L17.4477 5.49234L15.3364 4.35873L14.0737 2.5582C13.8293 2.20984 13.4124 1.99976 12.9651 1.99976H10.98Z" stroke="#3B3E5B" stroke-width="2"/>
<path d="M10.768 9.86578C11.5304 9.42561 12.4697 9.42561 13.2321 9.86578C13.9945 10.306 14.4642 11.1194 14.4642 11.9998C14.4642 12.8801 13.9945 13.6936 13.2321 14.1337C12.4697 14.5739 11.5304 14.5739 10.768 14.1337C10.0056 13.6936 9.53599 12.8801 9.53599 11.9998C9.53599 11.1194 10.0056 10.306 10.768 9.86578Z" stroke="#3B3E5B" stroke-width="2"/>
</svg>
