<svg width="24" height="24" viewBox="0 0 24 24" fill="none" xmlns="http://www.w3.org/2000/svg">
<path d="M3.00012 11.5C3.00012 9.99513 4.24238 8.75 5.80609 8.75C7.3698 8.75 8.61206 9.99513 8.61206 11.5C8.61206 13.0049 7.3698 14.25 5.80609 14.25C4.24238 14.25 3.00012 13.0049 3.00012 11.5Z" stroke="white" stroke-width="2"/>
<path d="M17.9999 6.75C17.9999 8.25487 16.7576 9.5 15.1939 9.5C13.6302 9.5 12.3879 8.25487 12.3879 6.75C12.3879 5.24513 13.6302 4 15.1939 4C16.7576 4 17.9999 5.24513 17.9999 6.75Z" stroke="white" stroke-width="2"/>
<path d="M17.9999 17.25C17.9999 18.7549 16.7576 20 15.1939 20C13.6302 20 12.3879 18.7549 12.3879 17.25C12.3879 15.7451 13.6302 14.5 15.1939 14.5C16.7576 14.5 17.9999 15.7451 17.9999 17.25Z" stroke="white" stroke-width="2"/>
<path d="M13.181 8.8515C13.6513 8.5619 13.7977 7.94591 13.5081 7.47564C13.2185 7.00537 12.6025 6.85891 12.1323 7.1485L13.181 8.8515ZM12.1323 7.1485L8.07256 9.6485L9.12128 11.3515L13.181 8.8515L12.1323 7.1485Z" fill="white"/>
<path d="M12.6568 16L8.0896 12.5" stroke="white" stroke-width="2"/>
</svg>
