<svg width="64" height="64" viewBox="0 0 64 64" fill="none" xmlns="http://www.w3.org/2000/svg">
<circle opacity="0.16" cx="32" cy="32" r="32" fill="#4CAF50"/>
<path fill-rule="evenodd" clip-rule="evenodd" d="M21 20C21.5523 20 22 20.4477 22 21V23.375H26.6492L26.9231 23.1559C28.3641 22.0031 30.1546 21.375 32 21.375C33.8454 21.375 35.6359 22.0031 37.0769 23.1559L37.3508 23.375H42V21C42 20.4477 42.4477 20 43 20C43.5523 20 44 20.4477 44 21V23.375V25.625V32.7292C44.6224 33.4343 45 34.3606 45 35.375V35.384C46.1213 35.485 47 36.4274 47 37.575V40.175C47 41.39 46.015 42.375 44.8 42.375H43V43C43 43.5523 42.5523 44 42 44C41.4477 44 41 43.5523 41 43V42.375H23V43C23 43.5523 22.5523 44 22 44C21.4477 44 21 43.5523 21 43V42.375H19.2C17.985 42.375 17 41.39 17 40.175V37.575C17 36.4274 17.8787 35.485 19 35.384V35.375C19 34.3606 19.3776 33.4343 20 32.7292V25.625V23.375V21C20 20.4477 20.4477 20 21 20ZM42 25.625V25.375H36.6492L35.8275 24.7176C34.7411 23.8485 33.3913 23.375 32 23.375C30.6087 23.375 29.2589 23.8485 28.1725 24.7176L27.3508 25.375H22V25.625V31.375H23H23.452C23.8638 30.2098 24.975 29.375 26.2812 29.375H28.2812C29.5875 29.375 30.6987 30.2098 31.1105 31.375H32.8895C33.3013 30.2098 34.4125 29.375 35.7188 29.375H37.7188C39.025 29.375 40.1362 30.2098 40.548 31.375H41H42V25.625ZM44.8 40.375H42H22H19.2C19.0895 40.375 19 40.2855 19 40.175V37.575C19 37.4645 19.0895 37.375 19.2 37.375H44.8C44.9105 37.375 45 37.4645 45 37.575V40.175C45 40.2855 44.9105 40.375 44.8 40.375ZM43 35.375C43 34.2704 42.1046 33.375 41 33.375H39.7188H33.7188H30.2812H24.2812H23C21.8954 33.375 21 34.2704 21 35.375H43Z" fill="#4CAF50"/>
</svg>
