<svg width="64" height="64" viewBox="0 0 64 64" fill="none" xmlns="http://www.w3.org/2000/svg">
<circle opacity="0.16" cx="32" cy="32" r="32" fill="#4CAF50"/>
<path fill-rule="evenodd" clip-rule="evenodd" d="M32.3939 19.0809C32.1424 18.973 31.8576 18.973 31.6061 19.0809L17.6061 25.0809C17.2384 25.2384 17 25.6 17 26V29.1875C17 29.7398 17.4477 30.1875 18 30.1875H19V31.7875C19 32.4863 19.5119 33.0655 20.1812 33.1705L19.818 43H18C17.4477 43 17 43.4477 17 44C17 44.5523 17.4477 45 18 45H46C46.5523 45 47 44.5523 47 44C47 43.4477 46.5523 43 46 43H44.1821L43.8189 33.1705C44.4881 33.0654 45 32.4862 45 31.7875V30.1875H46C46.5523 30.1875 47 29.7398 47 29.1875V26C47 25.6 46.7616 25.2384 46.3939 25.0809L32.3939 19.0809ZM43 30.1875H39V31.1875H43V30.1875ZM37 28.1875H45V26.6594L32 21.088L19 26.6594V28.1875H27H28H36H37ZM37 30.1875V31.7875C37 32.4863 37.5119 33.0655 38.1812 33.1705L37.818 43H35.1821L34.8189 33.1705C35.4881 33.0654 36 32.4862 36 31.7875V30.1875H37ZM40.182 33.1875L39.8194 43H42.1807L41.8182 33.1875H40.182ZM21 30.1875H25V31.1875H21V30.1875ZM28 30.1875H27V31.7875C27 32.4862 26.4881 33.0654 25.8189 33.1705L26.1821 43H28.818L29.1812 33.1705C28.5119 33.0655 28 32.4863 28 31.7875V30.1875ZM22.182 33.1875H23.8182L24.1807 43H21.8194L22.182 33.1875ZM30 30.1875V31.1875H34V30.1875H30ZM32.8182 33.1875H31.182L30.8194 43H33.1807L32.8182 33.1875ZM31.6061 23.0809C31.8576 22.973 32.1424 22.973 32.3939 23.0809L35.8939 24.5809C36.4016 24.7984 36.6367 25.3863 36.4192 25.8939C36.2016 26.4015 35.6137 26.6367 35.1061 26.4191L32 25.088L28.8939 26.4191C28.3863 26.6367 27.7984 26.4015 27.5809 25.8939C27.3633 25.3863 27.5985 24.7984 28.1061 24.5809L31.6061 23.0809Z" fill="#4CAF50"/>
</svg>
