<svg width="64" height="64" viewBox="0 0 64 64" fill="none" xmlns="http://www.w3.org/2000/svg">
<circle opacity="0.16" cx="32" cy="32" r="32" fill="#4CAF50"/>
<path fill-rule="evenodd" clip-rule="evenodd" d="M34.2489 18C31.211 18 28.6252 19.9265 27.6429 22.6232C23.8314 23.543 21 26.9743 21 31.0685C21 35.8665 24.8895 39.756 29.6875 39.756C30.1333 39.756 30.5717 39.7224 31 39.6574V44H27C26.4477 44 26 44.4477 26 45C26 45.5523 26.4477 46 27 46H32H37C37.5523 46 38 45.5523 38 45C38 44.4477 37.5523 44 37 44H33V39.3431C33.7734 39.6108 34.6033 39.756 35.4655 39.756C39.6266 39.756 42.9998 36.3828 42.9998 32.2218C42.9998 30.2344 42.2294 28.426 40.9731 27.0806C41.1712 26.4306 41.2776 25.7414 41.2776 25.0287C41.2776 21.1469 38.1308 18 34.2489 18ZM33 37.1896C33.0419 37.2028 33.0832 37.2189 33.1234 37.2377C33.8335 37.5699 34.6264 37.756 35.4655 37.756C38.522 37.756 40.9998 35.2783 40.9998 32.2218C40.9998 30.5805 40.2866 29.1071 39.15 28.0922C38.8323 27.8085 38.7292 27.3547 38.893 26.9616C39.1405 26.3678 39.2776 25.7156 39.2776 25.0287C39.2776 22.2514 37.0262 20 34.2489 20C31.9181 20 29.9553 21.5867 29.3865 23.7404C29.286 24.121 28.9716 24.4072 28.5833 24.4716C25.4155 24.9973 23 27.7518 23 31.0685C23 34.7619 25.9941 37.756 29.6875 37.756C30.1372 37.756 30.576 37.7118 31 37.6275V32.7882C30.9923 32.7809 30.9846 32.7735 30.9771 32.7659L28.637 30.4259C28.2465 30.0353 28.2465 29.4022 28.637 29.0116C29.0275 28.6211 29.6607 28.6211 30.0512 29.0116L31 29.9605V27.3125C31 26.7602 31.4477 26.3125 32 26.3125C32.5523 26.3125 33 26.7602 33 27.3125L33 32.9607L33.9491 32.0116C34.3396 31.6211 34.9727 31.6211 35.3633 32.0116C35.7538 32.4022 35.7538 33.0353 35.3633 33.4259L33.0232 35.7659C33.0155 35.7736 33.0078 35.7811 33 35.7884V37.1896Z" fill="#4CAF50"/>
</svg>
