<svg width="64" height="64" viewBox="0 0 64 64" fill="none" xmlns="http://www.w3.org/2000/svg">
<circle opacity="0.16" cx="32" cy="32" r="32" fill="#4CAF50"/>
<path fill-rule="evenodd" clip-rule="evenodd" d="M31 21C31 21.5523 31.4477 22 32 22C32.5523 22 33 21.5523 33 21V18C33 17.4477 32.5523 17 32 17C31.4477 17 31 17.4477 31 18V21ZM22 36.7914C22 31.2685 26.4772 26.7914 32 26.7914C37.5228 26.7914 42 31.2685 42 36.7914C42 37.5512 41.9154 38.2902 41.7555 39H22.2445C22.0846 38.2902 22 37.5512 22 36.7914ZM20.0285 37.625H19C18.4477 37.625 18 37.1773 18 36.625C18 36.0727 18.4477 35.625 19 35.625H20.056C20.6424 29.5449 25.7661 24.7914 32 24.7914C38.2339 24.7914 43.3576 29.5449 43.944 35.625H45C45.5523 35.625 46 36.0727 46 36.625C46 37.1773 45.5523 37.625 45 37.625H43.9715C43.9082 38.5454 43.7411 39.4382 43.4813 40.2913L43.2655 41H20.7345L20.5187 40.2913C20.2589 39.4382 20.0918 38.5454 20.0285 37.625ZM20 43C19.4477 43 19 43.4477 19 44C19 44.5523 19.4477 45 20 45H44C44.5523 45 45 44.5523 45 44C45 43.4477 44.5523 43 44 43H20ZM31 29.7914C31 29.2391 31.4477 28.7914 32 28.7914C35.0294 28.7914 37.664 30.4756 39.0211 32.954C39.2863 33.4384 39.1087 34.0461 38.6242 34.3114C38.1398 34.5766 37.5321 34.399 37.2668 33.9146C36.2466 32.0513 34.2697 30.7914 32 30.7914C31.4477 30.7914 31 30.3437 31 29.7914ZM28 22C27.4477 22 27 21.5523 27 21V20C27 19.4477 27.4477 19 28 19C28.5523 19 29 19.4477 29 20V21C29 21.5523 28.5523 22 28 22ZM35 21C35 21.5523 35.4477 22 36 22C36.5523 22 37 21.5523 37 21V20C37 19.4477 36.5523 19 36 19C35.4477 19 35 19.4477 35 20V21Z" fill="#4CAF50"/>
</svg>
